<svg width="16" height="16" viewBox="0 0 16 16" fill="none" xmlns="http://www.w3.org/2000/svg">
<g id="Bell">
<path id="Vector" d="M13.4276 12.5693H12.999V6.49789C12.999 3.97825 11.1365 1.8961 8.71331 1.54968V0.855033C8.71331 0.46039 8.39367 0.140747 7.99902 0.140747C7.60438 0.140747 7.28474 0.46039 7.28474 0.855033V1.54968C4.86152 1.8961 2.99902 3.97825 2.99902 6.49789V12.5693H2.57045C2.25438 12.5693 1.99902 12.8247 1.99902 13.1407V13.7122C1.99902 13.7907 2.06331 13.855 2.14188 13.855H5.99902C5.99902 14.9586 6.89545 15.855 7.99902 15.855C9.1026 15.855 9.99902 14.9586 9.99902 13.855H13.8562C13.9347 13.855 13.999 13.7907 13.999 13.7122V13.1407C13.999 12.8247 13.7437 12.5693 13.4276 12.5693ZM7.99902 14.7122C7.52581 14.7122 7.14188 14.3282 7.14188 13.855H8.85617C8.85617 14.3282 8.47224 14.7122 7.99902 14.7122ZM4.28474 12.5693V6.49789C4.28474 5.50503 4.67045 4.57289 5.37224 3.8711C6.07402 3.16932 7.00617 2.7836 7.99902 2.7836C8.99188 2.7836 9.92402 3.16932 10.6258 3.8711C11.3276 4.57289 11.7133 5.50503 11.7133 6.49789V12.5693H4.28474Z" fill="white"/>
</g>
</svg>
