<svg width="16" height="16" viewBox="0 0 16 16" fill="none" xmlns="http://www.w3.org/2000/svg">
<g id="Telegram">
<path id="Vector" d="M7.9895 10.2717L10.1508 12.729C10.9508 13.639 11.3515 14.0944 11.7708 13.983C12.1895 13.8724 12.3335 13.2737 12.6208 12.0757L14.2142 5.43037C14.6575 3.58503 14.8788 2.66303 14.3868 2.2077C13.8948 1.75237 13.0422 2.09103 11.3368 2.7677L3.42617 5.9097C2.06217 6.4517 1.38017 6.72237 1.33684 7.1877C1.33173 7.23512 1.33173 7.28295 1.33684 7.33037C1.37884 7.79637 2.0595 8.06903 3.42217 8.61503C4.03883 8.86237 4.3475 8.98637 4.56884 9.22303C4.59372 9.2497 4.61772 9.27726 4.64084 9.3057C4.84484 9.55903 4.9315 9.89237 5.1055 10.5564L5.4315 11.801C5.60017 12.4477 5.68484 12.7717 5.90684 12.8157C6.12884 12.8597 6.3215 12.5917 6.7075 12.055L7.9895 10.2717ZM7.9895 10.2717L7.77817 10.0517C7.53684 9.7997 7.41617 9.67437 7.41617 9.51837C7.41617 9.36237 7.53617 9.23637 7.77817 8.98503L10.1602 6.50237" stroke="#8C8C8C" stroke-width="1.5" stroke-linecap="round" stroke-linejoin="round"/>
</g>
</svg>
